<svg xmlns="http://www.w3.org/2000/svg" viewBox="0 0 612.002 612.002" width="512" height="512"><circle cx="305.999" cy="458.801" r="91.679" fill="#F2F2F2"/><path d="M305.999 214.318c-78.785 0-153.197 38.323-199.05 102.512-13.082 18.312-8.84 43.761 9.47 56.841 18.31 13.084 43.763 8.84 56.841-9.47 30.592-42.826 80.214-68.392 132.74-68.392s102.148 25.566 132.74 68.392c7.954 11.133 20.477 17.066 33.188 17.066a40.55 40.55 0 0 0 23.65-7.596c18.31-13.08 22.552-38.529 9.47-56.841-45.854-64.189-120.264-102.512-199.049-102.512z" fill="#F2F2F2"/><path d="M601.561 193.348C526.269 109.57 418.54 61.521 305.999 61.521S85.73 109.572 10.44 193.355c-15.042 16.737-13.668 42.499 3.073 57.541a40.592 40.592 0 0 0 27.221 10.442c11.16-.002 22.274-4.558 30.32-13.513 59.859-66.606 145.493-104.812 234.945-104.812 89.454 0 175.091 38.202 234.949 104.81 15.044 16.737 40.809 18.111 57.543 3.071 16.738-15.045 18.112-40.809 3.07-57.546z" fill="#F2F2F2"/></svg>