<svg xmlns="http://www.w3.org/2000/svg" viewBox="0 0 276.991 276.991" width="512" height="512"><circle cx="138.495" cy="207.653" r="41.494" fill="#F2F2F2"/><path d="M138.495 97c-35.658 0-69.337 17.345-90.09 46.397-5.921 8.288-4.001 19.806 4.286 25.726 8.287 5.922 19.807 4.001 25.726-4.286 13.846-19.383 36.305-30.954 60.078-30.954 23.773 0 46.232 11.571 60.078 30.954 3.6 5.039 9.268 7.724 15.021 7.724 3.709 0 7.455-1.116 10.704-3.438 8.287-5.92 10.207-17.438 4.286-25.726C207.831 114.345 174.153 97 138.495 97z" fill="#F2F2F2"/><path d="M272.266 87.509c-34.077-37.918-82.835-59.665-133.771-59.665S38.801 49.592 4.725 87.512c-6.808 7.575-6.186 19.235 1.391 26.043a18.371 18.371 0 0 0 12.32 4.726 18.398 18.398 0 0 0 13.723-6.116c27.092-30.146 65.85-47.438 106.336-47.438 40.487 0 79.246 17.29 106.338 47.437 6.809 7.575 18.47 8.197 26.044 1.39 7.575-6.809 8.197-18.47 1.389-26.045z" fill="#F2F2F2"/></svg>