<svg xmlns="http://www.w3.org/2000/svg" xmlns:xlink="http://www.w3.org/1999/xlink" version="1.1" id="Capa_1" x="0px" y="0px" viewBox="0 0 612.002 612.002" style="enable-background:new 0 0 612.002 612.002;" xml:space="preserve" width="512px" height="512px">
	<circle cx="305.999" cy="458.801" r="91.679" fill="#F2F2F2"/>
	<path d="M305.999,214.318c-78.785,0-153.197,38.323-199.05,102.512c-13.082,18.312-8.84,43.761,9.47,56.841    c18.31,13.084,43.763,8.84,56.841-9.47c30.592-42.826,80.214-68.392,132.74-68.392s102.148,25.566,132.74,68.392    c7.954,11.133,20.477,17.066,33.188,17.066c8.195,0,16.472-2.466,23.65-7.596c18.31-13.08,22.552-38.529,9.47-56.841    C459.194,252.641,384.784,214.318,305.999,214.318z" fill="#F2F2F2"/>
	<path d="M601.561,193.348C526.269,109.57,418.54,61.521,305.999,61.521S85.73,109.572,10.44,193.355    c-15.042,16.737-13.668,42.499,3.073,57.541c7.782,6.995,17.519,10.442,27.221,10.442c11.16-0.002,22.274-4.558,30.32-13.513    c59.859-66.606,145.493-104.812,234.945-104.812c89.454,0,175.091,38.202,234.949,104.81    c15.044,16.737,40.809,18.111,57.543,3.071C615.229,235.849,616.603,210.085,601.561,193.348z" fill="#F2F2F2"/>
</svg>
